# xmcd
#
# Track frame offsets:
#	150
#	13982
#	32656
#	44745
#	59332
#	71681
#	85415
#	99526
#	116219
#	132971
#	150477
#	162250
#	179599
#	195193
#
# Disc length: 2874 seconds
#
# Revision: 2
# Processed by: cddbd v1.5.2PL0 Copyright (c) Steve Scherf et al.
# Submitted via: audiograbber 1.83.01
#
DISCID=c30b380e
DTITLE=LeAnn Rimes - Lady and Gentlemen
DYEAR=2011
DGENRE=Country
TTITLE0=Swingin'
TTITLE1=Wasted Days And Wasted Nights
TTITLE2=The Only Mama That'll Walk The Line
TTITLE3=I Can't Be Myslef
TTITLE4=16 Tons
TTITLE5=Help Me Make It Through The Night
TTITLE6=Rose Colored Glasses
TTITLE7=A Good Hearted Woman
TTITLE8=When I Call Your Name
TTITLE9=He Stopped Loving Her Today
TTITLE10=Blue (Feat. The Time Jumpers)
TTITLE11=The Bottle Let Me Down
TTITLE12=Crazy Women (Bonus Track)
TTITLE13=Give (Bonus Track)
EXTD=
EXTT0=
EXTT1=
EXTT2=
EXTT3=
EXTT4=
EXTT5=
EXTT6=
EXTT7=
EXTT8=
EXTT9=
EXTT10=
EXTT11=
EXTT12=
EXTT13=
PLAYORDER=
